<mxfile host="app.diagrams.net" modified="2023-11-05T14:08:07.730Z" agent="Mozilla/5.0 (Windows NT 10.0; Win64; x64) AppleWebKit/537.36 (KHTML, like Gecko) Chrome/118.0.0.0 Safari/537.36" version="22.0.8" etag="1Xi9SF8g_sIYE9eppOhs" type="github">
  <diagram name="ページ1" id="6YCsmmkSxjkZ0fNEMJiW">
    <mxGraphModel>
      <root>
        <mxCell id="0" />
        <mxCell id="1" parent="0" />
      </root>
    </mxGraphModel>
  </diagram>
</mxfile>
